<?xml version="1.0" encoding="UTF-8" standalone="no"?>
<svg
   xmlns:dc="http://purl.org/dc/elements/1.1/"
   xmlns:cc="http://creativecommons.org/ns#"
   xmlns:rdf="http://www.w3.org/1999/02/22-rdf-syntax-ns#"
   xmlns:svg="http://www.w3.org/2000/svg"
   xmlns="http://www.w3.org/2000/svg"
   xmlns:sodipodi="http://sodipodi.sourceforge.net/DTD/sodipodi-0.dtd"
   xmlns:inkscape="http://www.inkscape.org/namespaces/inkscape"
   width="512"
   height="512"
   viewBox="0 0 135.46666 135.46667"
   version="1.1"
   id="svg8"
   inkscape:version="1.0.1 (3bc2e813f5, 2020-09-07, custom)"
   sodipodi:docname="game-controller-udev.svg"
   inkscape:export-xdpi="96"
   inkscape:export-ydpi="96">
  <defs
     id="defs2" />
  <sodipodi:namedview
     id="base"
     pagecolor="#ffffff"
     bordercolor="#666666"
     borderopacity="1.0"
     inkscape:pageopacity="0.0"
     inkscape:pageshadow="2"
     inkscape:zoom="2"
     inkscape:cx="215.41348"
     inkscape:cy="183.53807"
     inkscape:document-units="px"
     inkscape:current-layer="g991"
     inkscape:document-rotation="0"
     showgrid="true"
     units="px"
     inkscape:snap-midpoints="true"
     inkscape:snap-bbox="true"
     inkscape:snap-intersection-paths="false"
     inkscape:bbox-paths="true"
     inkscape:bbox-nodes="true"
     inkscape:snap-bbox-edge-midpoints="true"
     inkscape:snap-bbox-midpoints="true"
     inkscape:snap-grids="true"
     inkscape:snap-page="true"
     inkscape:snap-object-midpoints="true"
     inkscape:snap-center="true"
     inkscape:snap-text-baseline="true"
     inkscape:snap-smooth-nodes="true"
     inkscape:window-width="2192"
     inkscape:window-height="1169"
     inkscape:window-x="0"
     inkscape:window-y="0"
     inkscape:window-maximized="1">
    <inkscape:grid
       type="xygrid"
       id="grid833"
       empspacing="4" />
  </sodipodi:namedview>
  <metadata
     id="metadata5">
    <rdf:RDF>
      <cc:Work
         rdf:about="">
        <dc:format>image/svg+xml</dc:format>
        <dc:type
           rdf:resource="http://purl.org/dc/dcmitype/StillImage" />
        <dc:title />
      </cc:Work>
    </rdf:RDF>
  </metadata>
  <g
     inkscape:label="Ebene 1"
     inkscape:groupmode="layer"
     id="layer1">
    <g
       id="g991"
       transform="translate(-0.52916145)">
      <circle
         style="fill:#000000;fill-opacity:1;stroke-width:14.4919;stroke-dasharray:43.4755, 14.4919;stroke-dashoffset:144.919"
         id="path835"
         cx="33.866665"
         cy="68.791679"
         r="25.4" />
      <circle
         style="fill:#deddda;fill-opacity:1;stroke-width:13.2842;stroke-dasharray:39.8525, 13.2842;stroke-dashoffset:132.842"
         id="circle906"
         cx="33.866665"
         cy="68.791679"
         r="23.283331" />
      <path
         id="rect839"
         style="fill:#000000;fill-opacity:1;stroke-width:13.2292;stroke-dasharray:39.6875, 13.2292;stroke-dashoffset:132.292"
         d="m 33.866666,43.391665 v 50.800001 c 10.583333,0 17.991667,-4.23333 33.866666,-4.23333 15.875,0 23.283334,4.23333 33.866668,4.23333 V 43.391665 Z"
         sodipodi:nodetypes="cczccc" />
      <circle
         style="fill:#000000;fill-opacity:1;stroke-width:14.4919;stroke-dasharray:43.4755, 14.4919;stroke-dashoffset:144.919"
         id="circle837"
         cx="102.65832"
         cy="68.791679"
         r="25.4" />
      <path
         id="path910"
         style="fill:#deddda;fill-opacity:1;stroke-width:12.9507;stroke-dasharray:38.8519, 12.9507;stroke-dashoffset:129.507"
         d="m 33.866666,45.508332 v 46.566664 c 10.583333,0 17.991667,-4.056947 33.866666,-4.056947 15.875,0 23.283334,4.056947 33.866668,4.056947 V 45.508332 Z"
         sodipodi:nodetypes="cczccc" />
      <circle
         style="fill:#deddda;fill-opacity:1;stroke-width:13.2842;stroke-dasharray:39.8525, 13.2842;stroke-dashoffset:132.842"
         id="circle908"
         cx="102.65832"
         cy="68.791679"
         r="23.283331" />
      <circle
         style="fill:#f6f5f4;fill-opacity:1;stroke-width:9.66127;stroke-dasharray:28.9837, 9.66127;stroke-dashoffset:96.6127"
         id="circle847"
         cx="33.866665"
         cy="68.791679"
         r="16.933332" />
      <g
         id="g851"
         transform="translate(2.1166658,-14.816663)"
         style="fill:#5e5c64">
        <rect
           style="fill:#5e5c64;fill-opacity:1;stroke-width:10.9236;stroke-dasharray:32.7709, 10.9236;stroke-dashoffset:109.236"
           id="rect843"
           width="6.3500009"
           height="21.166679"
           x="28.574999"
           y="73.024994"
           ry="2.116668" />
        <rect
           style="fill:#5e5c64;fill-opacity:1;stroke-width:10.9236;stroke-dasharray:32.7709, 10.9236;stroke-dashoffset:109.236"
           id="rect845"
           width="6.3500104"
           height="21.16667"
           x="80.433327"
           y="-42.333332"
           ry="2.1166651"
           transform="rotate(90)" />
      </g>
      <circle
         style="fill:#f6f5f4;fill-opacity:1;stroke-width:9.66127;stroke-dasharray:28.9837, 9.66127;stroke-dashoffset:96.6127"
         id="circle855"
         cx="102.65832"
         cy="68.791679"
         r="16.933332" />
      <circle
         style="fill:#c061cb;fill-opacity:1;stroke-width:14.1426;stroke-dasharray:42.4277, 14.1426;stroke-dashoffset:141.426"
         id="path873"
         cx="102.65833"
         cy="60.325001"
         r="4.2333331" />
      <circle
         style="fill:#e01b24;fill-opacity:1;stroke-width:14.1426;stroke-dasharray:42.4277, 14.1426;stroke-dashoffset:141.426"
         id="circle875"
         cx="102.65833"
         cy="77.258331"
         r="4.2333331" />
      <circle
         style="fill:#f8e45c;fill-opacity:1;stroke-width:14.1426;stroke-dasharray:42.4277, 14.1426;stroke-dashoffset:141.426"
         id="circle877"
         cx="94.191666"
         cy="68.791664"
         r="4.2333331" />
      <circle
         style="fill:#33d17a;fill-opacity:1;stroke-width:14.1426;stroke-dasharray:42.4277, 14.1426;stroke-dashoffset:141.426"
         id="circle879"
         cx="111.12498"
         cy="68.791664"
         r="4.2333331" />
      <path
         id="circle914"
         style="fill:#000000;fill-opacity:1;stroke-width:10.8689;stroke-dasharray:32.6067, 10.8689;stroke-dashoffset:108.689"
         d="m 33.771064,49.741665 a 19.050001,19.050001 0 0 0 -18.954398,19.05 19.050001,19.050001 0 0 0 19.05,19.05 19.050001,19.050001 0 0 0 19.05,-19.05 19.050001,19.050001 0 0 0 -19.05,-19.05 19.050001,19.050001 0 0 0 -0.0956,0 z m 0.01705,2.116667 a 16.933332,16.933332 0 0 1 0.07855,0 A 16.933332,16.933332 0 0 1 50.799999,68.791665 16.933332,16.933332 0 0 1 33.866666,85.724998 16.933332,16.933332 0 0 1 16.933333,68.791665 16.933332,16.933332 0 0 1 33.788117,51.858332 Z" />
      <path
         id="circle920"
         style="fill:#000000;fill-opacity:1;stroke-width:10.8689;stroke-dasharray:32.6067, 10.8689;stroke-dashoffset:108.689"
         d="m 102.56273,49.741665 a 19.050001,19.050001 0 0 0 -18.954398,19.05 19.050001,19.050001 0 0 0 19.049998,19.05 19.050001,19.050001 0 0 0 19.05,-19.05 19.050001,19.050001 0 0 0 -19.05,-19.05 19.050001,19.050001 0 0 0 -0.0956,0 z m 0.017,2.116667 a 16.933332,16.933332 0 0 1 0.0786,0 16.933332,16.933332 0 0 1 16.93334,16.933333 A 16.933332,16.933332 0 0 1 102.65833,85.724998 16.933332,16.933332 0 0 1 85.724999,68.791665 16.933332,16.933332 0 0 1 102.57978,51.858332 Z" />
      <rect
         style="fill:#000000;fill-opacity:1;stroke-width:13.2292;stroke-dasharray:39.6875, 13.2292;stroke-dashoffset:132.292"
         id="rect932"
         width="10.583335"
         height="4.2333307"
         x="55.033333"
         y="73.025002"
         ry="2.1166649" />
      <rect
         style="fill:#000000;fill-opacity:1;stroke-width:13.2292;stroke-dasharray:39.6875, 13.2292;stroke-dashoffset:132.292"
         id="rect934"
         width="10.583335"
         height="4.2333307"
         x="70.908333"
         y="73.025009"
         ry="2.1166649" />
      <rect
         style="fill:#000000;fill-opacity:1;stroke-width:11.4568;stroke-dasharray:34.3704, 11.4568;stroke-dashoffset:114.568"
         id="rect938"
         width="25.400003"
         height="4.233335"
         x="83.60833"
         y="41.274994"
         ry="2.1166675" />
      <rect
         style="fill:#000000;fill-opacity:1;stroke-width:11.4568;stroke-dasharray:34.3704, 11.4568;stroke-dashoffset:114.568"
         id="rect958"
         width="25.400003"
         height="4.233335"
         x="27.516666"
         y="41.274994"
         ry="2.1166675" />
      <path
         id="path855"
         style="font-style:normal;font-variant:normal;font-weight:bold;font-stretch:normal;font-size:10.5833px;line-height:1.25;font-family:Cantarell;-inkscape-font-specification:'Cantarell Bold';fill:#000000;fill-opacity:1;stroke:none;stroke-width:0.264583"
         d="m 66.930887,51.340019 -0.682128,2.963125 c -0.267173,-0.264581 -0.660903,-0.391706 -1.147733,-0.391706 -1.449912,0 -2.66197,1.079318 -3.039608,2.719729 -0.365455,1.587495 0.314444,2.635499 1.626772,2.635499 0.645584,0 1.254038,-0.254167 1.737363,-0.698664 l 0.149344,0.592727 h 0.868164 l 1.800408,-7.82071 z m 4.488098,2.571419 c -1.534578,0 -2.812275,1.090129 -3.180168,2.688207 -0.380074,1.650994 0.465776,2.667021 2.222604,2.667021 0.60325,0 1.288729,-0.126836 1.903243,-0.359669 l -0.0925,-0.931725 c -0.451731,0.169333 -0.928791,0.264583 -1.362708,0.264583 -0.920747,0 -1.392666,-0.433877 -1.356505,-1.280541 h 3.334163 c 0.08048,-0.211667 0.185144,-0.528878 0.238746,-0.761712 0.324038,-1.407578 -0.331044,-2.286164 -1.706874,-2.286164 z m -14.57637,0.105937 -0.755509,3.280936 c -0.272876,1.185328 0.282424,1.947167 1.351338,1.947167 0.603247,0 1.228063,-0.23269 1.757,-0.645438 l 0.114205,0.560689 h 0.963247 l 1.183907,-5.143354 h -1.354439 l -0.850593,3.693313 c -0.339352,0.232834 -0.696682,0.360186 -1.045932,0.360186 -0.730248,0 -0.823362,-0.561187 -0.706417,-1.069187 l 0.687298,-2.984312 z m 17.261478,0 0.815972,5.143354 h 1.344102 l 3.184303,-5.143354 h -1.35444 l -2.165241,3.841626 -0.332798,-3.841626 z m -3.018936,0.931209 c 0.666748,0 0.958464,0.434041 0.785482,1.185458 h -2.159042 c 0.251933,-0.772581 0.727977,-1.185458 1.37356,-1.185458 z m -6.067848,0.105936 c 0.433917,0 0.773951,0.179875 0.946714,0.486791 l -0.48731,2.116667 c -0.301051,0.296333 -0.68951,0.465606 -1.102259,0.465606 -0.793748,0 -1.149819,-0.613569 -0.928109,-1.57665 0.211966,-0.920747 0.808967,-1.492414 1.570964,-1.492414 z" />
    </g>
  </g>
</svg>
