<?xml version="1.0" encoding="UTF-8" standalone="no"?>
<svg
   width="512"
   height="512"
   viewBox="0 0 135.46666 135.46667"
   version="1.1"
   id="svg8"
   inkscape:version="1.4.3 (0d15f75042, 2025-12-25)"
   sodipodi:docname="game-devices-udev.svg"
   inkscape:export-filename="game-devices-udev.png"
   inkscape:export-xdpi="96"
   inkscape:export-ydpi="96"
   xmlns:inkscape="http://www.inkscape.org/namespaces/inkscape"
   xmlns:sodipodi="http://sodipodi.sourceforge.net/DTD/sodipodi-0.dtd"
   xmlns:xlink="http://www.w3.org/1999/xlink"
   xmlns="http://www.w3.org/2000/svg"
   xmlns:svg="http://www.w3.org/2000/svg"
   xmlns:rdf="http://www.w3.org/1999/02/22-rdf-syntax-ns#"
   xmlns:cc="http://creativecommons.org/ns#"
   xmlns:dc="http://purl.org/dc/elements/1.1/">
  <defs
     id="defs2">
    <linearGradient
       id="linearGradient2"
       inkscape:collect="always">
      <stop
         style="stop-color:#f5f5f5;stop-opacity:1;"
         offset="0"
         id="stop2" />
      <stop
         style="stop-color:#f1f1f1;stop-opacity:1;"
         offset="1"
         id="stop3" />
    </linearGradient>
    <linearGradient
       id="linearGradient14"
       inkscape:collect="always">
      <stop
         style="stop-color:#e5147d;stop-opacity:1;"
         offset="0"
         id="stop14" />
      <stop
         style="stop-color:#7100a7;stop-opacity:1;"
         offset="1"
         id="stop15" />
    </linearGradient>
    <linearGradient
       inkscape:collect="always"
       xlink:href="#linearGradient14"
       id="linearGradient15"
       x1="169.30849"
       y1="52.687328"
       x2="276.36618"
       y2="53.546696"
       gradientUnits="userSpaceOnUse"
       gradientTransform="rotate(21.003501,173.22697,95.04779)" />
    <linearGradient
       inkscape:collect="always"
       xlink:href="#linearGradient14"
       id="linearGradient28"
       gradientUnits="userSpaceOnUse"
       gradientTransform="translate(-272.78546,39.08085)"
       x1="194.99792"
       y1="72.760414"
       x2="270.66873"
       y2="113.24167" />
    <linearGradient
       inkscape:collect="always"
       xlink:href="#linearGradient14"
       id="linearGradient27"
       gradientUnits="userSpaceOnUse"
       gradientTransform="translate(-115.6691,256.95778)"
       x1="72.760414"
       y1="-194.99792"
       x2="113.24167"
       y2="-270.66873" />
    <linearGradient
       inkscape:collect="always"
       xlink:href="#linearGradient14"
       id="linearGradient26"
       gradientUnits="userSpaceOnUse"
       gradientTransform="translate(-273.15964,18.10127)"
       x1="201.85324"
       y1="49.477081"
       x2="245.05515"
       y2="49.477081" />
    <linearGradient
       inkscape:collect="always"
       xlink:href="#linearGradient2"
       id="linearGradient3"
       x1="169.3085"
       y1="73.853996"
       x2="276.36618"
       y2="74.713364"
       gradientUnits="userSpaceOnUse"
       gradientTransform="rotate(21.003501,230.31979,105.63112)" />
    <linearGradient
       inkscape:collect="always"
       xlink:href="#linearGradient2"
       id="linearGradient10"
       x1="166.66266"
       y1="52.687325"
       x2="273.72034"
       y2="53.546696"
       gradientUnits="userSpaceOnUse" />
    <linearGradient
       inkscape:collect="always"
       xlink:href="#linearGradient2"
       id="linearGradient11"
       x1="10.558496"
       y1="51.099823"
       x2="117.61617"
       y2="51.95919"
       gradientUnits="userSpaceOnUse" />
    <linearGradient
       inkscape:collect="always"
       xlink:href="#linearGradient2"
       id="linearGradient12"
       x1="166.66266"
       y1="52.687325"
       x2="273.72034"
       y2="53.546696"
       gradientUnits="userSpaceOnUse" />
    <linearGradient
       inkscape:collect="always"
       xlink:href="#linearGradient2"
       id="linearGradient16"
       gradientUnits="userSpaceOnUse"
       x1="184.75189"
       y1="54.09734"
       x2="284.38849"
       y2="93.271759" />
  </defs>
  <sodipodi:namedview
     id="base"
     pagecolor="#ffffff"
     bordercolor="#666666"
     borderopacity="1.0"
     inkscape:pageopacity="0.0"
     inkscape:pageshadow="2"
     inkscape:zoom="0.5"
     inkscape:cx="187"
     inkscape:cy="402"
     inkscape:document-units="px"
     inkscape:current-layer="layer1"
     inkscape:document-rotation="0"
     showgrid="true"
     units="px"
     inkscape:snap-midpoints="true"
     inkscape:snap-bbox="true"
     inkscape:snap-intersection-paths="false"
     inkscape:bbox-paths="true"
     inkscape:bbox-nodes="true"
     inkscape:snap-bbox-edge-midpoints="true"
     inkscape:snap-bbox-midpoints="true"
     inkscape:snap-grids="true"
     inkscape:snap-page="true"
     inkscape:snap-object-midpoints="true"
     inkscape:snap-center="true"
     inkscape:snap-text-baseline="true"
     inkscape:snap-smooth-nodes="true"
     inkscape:window-width="1440"
     inkscape:window-height="831"
     inkscape:window-x="0"
     inkscape:window-y="0"
     inkscape:window-maximized="1"
     inkscape:showpageshadow="2"
     inkscape:pagecheckerboard="0"
     inkscape:deskcolor="#d1d1d1">
    <inkscape:grid
       type="xygrid"
       id="grid833"
       empspacing="4"
       originx="0"
       originy="0"
       spacingy="1"
       spacingx="1"
       units="px" />
  </sodipodi:namedview>
  <metadata
     id="metadata5">
    <rdf:RDF>
      <cc:Work
         rdf:about="">
        <dc:format>image/svg+xml</dc:format>
        <dc:type
           rdf:resource="http://purl.org/dc/dcmitype/StillImage" />
        <dc:title />
      </cc:Work>
    </rdf:RDF>
  </metadata>
  <g
     inkscape:label="Ebene 1"
     inkscape:groupmode="layer"
     id="layer1">
    <g
       id="g991"
       transform="translate(-157.42708,-16.404167)">
      <path
         id="circle1"
         style="fill:url(#linearGradient15);fill-opacity:1;stroke:url(#linearGradient3);stroke-width:10.5833;stroke-linecap:round;stroke-linejoin:round;stroke-dasharray:none;stroke-dashoffset:144.919;paint-order:stroke markers fill"
         d="m 230.18491,21.417815 c -0.27821,-0.01797 -0.55624,0.03763 -0.80615,0.16123 -6.89725,2.027662 -11.7815,5.415821 -14.0963,10.133749 -2.31479,4.717928 -2.48725,9.821735 -0.0527,13.873569 1.54388,2.569506 4.19471,3.683661 6.78512,4.021462 2.59039,0.337797 5.26276,0.02526 7.52305,-0.228927 0.87138,-0.0981 1.49819,-0.884094 1.39991,-1.75545 -0.0981,-0.871373 -0.88408,-1.498178 -1.75544,-1.399911 -2.25306,0.253371 -4.71454,0.502913 -6.75618,0.236676 -2.04165,-0.266241 -3.52088,-0.92236 -4.47415,-2.508892 -1.7989,-2.99393 -1.77077,-6.863428 0.18088,-10.841197 1.95164,-3.977769 6.15972,-6.925655 12.6509,-8.683709 0.78696,-0.387494 1.11049,-1.339798 0.72248,-2.126468 -0.25105,-0.50914 -0.75486,-0.845476 -1.32136,-0.882115 z m 12.99456,19.743497 -1.30639,0.152961 0.35347,3.027206 -0.0103,0.0016 c -0.14093,-0.186728 -0.30194,-0.336083 -0.48318,-0.448035 -0.18123,-0.111958 -0.37913,-0.187325 -0.59377,-0.225292 -0.21158,-0.04185 -0.43642,-0.04853 -0.67489,-0.02067 -0.46658,0.0545 -0.86406,0.221723 -1.19218,0.501777 -0.32812,0.280055 -0.56568,0.64604 -0.71262,1.097608 -0.14692,0.451574 -0.18788,0.956816 -0.12247,1.516704 0.0662,0.566799 0.22148,1.053396 0.46509,1.459341 0.24705,0.405542 0.56236,0.706935 0.94619,0.903821 0.3873,0.196482 0.8174,0.266674 1.29088,0.211358 0.23847,-0.02786 0.45752,-0.08804 0.6568,-0.181386 0.20276,-0.09375 0.37891,-0.219614 0.52866,-0.377236 0.15283,-0.161469 0.27386,-0.354115 0.36328,-0.578261 l 0.0103,-0.0016 0.0977,0.834574 1.28571,-0.149862 z m 12.16101,0.859897 -1.36839,0.160195 -0.65215,2.96623 c -0.0612,0.315444 -0.12051,0.63064 -0.17829,0.945675 l -0.0703,0.397905 c -0.0541,-0.123581 -0.10855,-0.247003 -0.1633,-0.370519 -0.12884,-0.293233 -0.26111,-0.58607 -0.39687,-0.878498 l -1.33325,-2.734717 -1.38442,0.161746 2.69751,5.234305 1.43092,-0.167429 z m -8.09718,0.833022 c -0.095,0.0023 -0.19192,0.0092 -0.29042,0.02067 -0.5115,0.05975 -0.94983,0.235692 -1.31516,0.527099 -0.36533,0.291407 -0.63508,0.666224 -0.80926,1.124477 -0.17047,0.457948 -0.22365,0.964926 -0.15864,1.521356 0.0646,0.552972 0.22927,1.032724 0.49402,1.439706 0.2678,0.403118 0.61636,0.704235 1.04593,0.902786 0.42957,0.198549 0.91741,0.265846 1.46348,0.202055 0.42856,-0.05006 0.81039,-0.171587 1.14515,-0.364835 0.33435,-0.196707 0.60133,-0.445092 0.80099,-0.745173 0.2031,-0.300494 0.31815,-0.632798 0.34576,-0.996822 l -1.22318,0.142627 c -0.0302,0.16119 -0.0955,0.307389 -0.19588,0.438206 -0.10036,0.130818 -0.23159,0.239077 -0.39326,0.324528 -0.16168,0.08545 -0.35123,0.140961 -0.56896,0.166396 -0.30068,0.03513 -0.56568,-6.67e-4 -0.7953,-0.10697 -0.22617,-0.106701 -0.40881,-0.27261 -0.54725,-0.498158 -0.1246,-0.202973 -0.2079,-0.442266 -0.25012,-0.717271 l 3.95893,-0.462505 -0.0413,-0.357599 c -0.0489,-0.418188 -0.15612,-0.792888 -0.32091,-1.123964 -0.16519,-0.334528 -0.37821,-0.614498 -0.63924,-0.839742 -0.26144,-0.228701 -0.56056,-0.393328 -0.89813,-0.494025 -0.25318,-0.07552 -0.52228,-0.109846 -0.80719,-0.102838 z m 15.96854,0.39636 c -1.61795,-0.121024 -3.34895,-0.106716 -5.16093,0.0057 -0.87483,0.0548 -1.53969,0.808254 -1.48518,1.683101 0.054,0.875015 0.80704,1.540618 1.68206,1.486731 3.39548,-0.210624 6.38728,-0.0063 8.49096,0.657326 2.1037,0.663644 3.19473,1.598181 3.59771,3.079914 0.37084,1.363485 0.29449,2.322845 -0.046,3.166731 -0.34049,0.843884 -1.0028,1.632286 -2.04742,2.416906 -2.08926,1.569236 -5.63465,2.957416 -9.6976,4.49275 -8.1259,3.070669 -18.4618,6.90278 -23.93084,16.599505 -0.43071,0.763727 -0.1607,1.732017 0.60307,2.162659 0.76373,0.43071 1.73201,0.160699 2.16266,-0.603066 4.79728,-8.505684 14.16144,-12.120259 22.28701,-15.190802 4.06279,-1.53527 7.77986,-2.892444 10.48153,-4.921665 1.35083,-1.014611 2.4677,-2.237527 3.08508,-3.767727 0.61738,-1.530201 0.67842,-3.306554 0.16691,-5.187283 -0.72901,-2.680519 -2.98901,-4.417133 -5.70713,-5.27461 -1.35906,-0.428736 -2.86395,-0.685129 -4.4819,-0.806153 z m -15.91325,0.646986 c 0.19779,5.48e-4 0.37723,0.03845 0.53847,0.11421 0.21804,0.09715 0.39543,0.251812 0.53227,0.463539 0.10214,0.153858 0.17724,0.334326 0.22428,0.541052 l -2.697,0.315225 c -0.003,-0.212132 0.0269,-0.404639 0.0884,-0.577742 0.0847,-0.237421 0.22109,-0.428811 0.41083,-0.573607 0.18937,-0.148243 0.42269,-0.238486 0.69918,-0.270786 0.07,-0.0082 0.13767,-0.01207 0.2036,-0.01188 z m -10.08775,0.241849 -1.31154,0.152963 0.36173,3.094901 c 0.0363,0.311048 0.0141,0.572917 -0.0661,0.785479 -0.0807,0.20911 -0.2053,0.370944 -0.37413,0.485245 -0.16882,0.114307 -0.36893,0.184821 -0.60049,0.21187 -0.3456,0.04038 -0.62886,-0.03166 -0.85008,-0.216007 -0.21776,-0.184755 -0.35056,-0.477594 -0.39739,-0.878498 l -0.37517,-3.213759 -1.30638,0.152446 0.39946,3.421498 c 0.0545,0.46657 0.18373,0.852576 0.38757,1.158067 0.20344,0.302037 0.462,0.519033 0.77515,0.650607 0.31275,0.12811 0.65904,0.169981 1.03922,0.125575 0.47694,-0.05572 0.85965,-0.230071 1.14773,-0.522966 0.17155,-0.174809 0.3134,-0.387 0.42529,-0.635104 l 0.0992,0.852145 1.2857,-0.15038 z m 3.9057,0.545185 c 0.20407,0.0038 0.39141,0.0512 0.56224,0.141587 0.22778,0.120532 0.41612,0.305036 0.56431,0.553972 0.14819,0.248935 0.24264,0.551464 0.28422,0.907439 0.0416,0.355977 0.0192,0.673585 -0.0672,0.953432 -0.0868,0.276386 -0.22678,0.499429 -0.42065,0.669209 -0.19428,0.166325 -0.43507,0.266728 -0.72192,0.300239 -0.26613,0.03109 -0.50898,-0.0089 -0.72864,-0.119889 -0.21965,-0.110971 -0.402,-0.291195 -0.54674,-0.540535 -0.14473,-0.24934 -0.23918,-0.562246 -0.28319,-0.938961 -0.044,-0.376715 -0.0238,-0.70157 0.06,-0.974101 0.0834,-0.275989 0.21907,-0.493024 0.40721,-0.65164 0.18776,-0.162063 0.41446,-0.258816 0.68058,-0.289906 0.0718,-0.0084 0.14179,-0.0121 0.20981,-0.01085 z m -43.53171,20.998201 c -0.82456,0.02671 -1.58956,0.537532 -1.90479,1.358573 -0.0975,0.253861 -0.14311,0.514205 -0.14211,0.769978 -11.5542,-1.389972 -22.57504,5.249961 -26.74617,16.114266 -5.0278,13.095904 1.51258,27.788091 14.60841,32.816081 9.88016,3.79333 18.31366,2.49659 33.1339,8.18658 14.82024,5.69 20.21878,12.29768 30.09894,16.09101 l 0.008,-0.0207 c 0.3238,0.14006 0.65043,0.2735 0.97979,0.39995 13.09605,5.02814 27.7886,-1.51229 32.8166,-14.6084 4.17129,-10.86426 0.42578,-23.17357 -9.08989,-29.873116 0.1719,-0.189389 0.31233,-0.413281 0.4098,-0.667141 0.4203,-1.094722 -0.12278,-2.314419 -1.2175,-2.734719 l -19.76055,-7.586616 c -1.09472,-0.4203 -2.31441,0.122259 -2.73471,1.216981 L 219.39228,76.145221 c 0.4203,-1.094721 -0.12225,-2.314416 -1.21697,-2.734715 L 198.41476,65.82389 c -0.27368,-0.105076 -0.55508,-0.149978 -0.82993,-0.141078 z"
         sodipodi:nodetypes="ccssscccssscccccccscssssccscccccccccccccccccccssscscssccccssscscccccssscccssssscccsssssssccccscssccccsscccccccscccccssssccssssccsssscccscccccsccccccs" />
      <g
         id="g6"
         transform="rotate(21.003501,89.569991,522.4502)"
         style="fill:#5e5c64">
        <path
           id="rect5"
           style="fill:url(#linearGradient11);fill-opacity:1;stroke-width:10.9236;stroke-dasharray:32.7709, 10.9236;stroke-dashoffset:109.236"
           d="m 30.691663,73.024996 c -1.172634,0 -2.116667,0.944033 -2.116667,2.116667 v 5.291666 H 23.28333 c -1.172633,0 -2.116667,0.944035 -2.116667,2.116667 v 2.116667 c 0,1.172632 0.944034,2.116666 2.116667,2.116666 h 5.291666 v 5.291667 c 0,1.172634 0.944033,2.116667 2.116667,2.116667 h 2.116667 c 1.172634,0 2.116666,-0.944033 2.116666,-2.116667 v -5.291667 h 5.291667 c 1.172632,0 2.116666,-0.944034 2.116666,-2.116666 v -2.116667 c 0,-1.172632 -0.944034,-2.116667 -2.116666,-2.116667 h -5.291667 v -5.291666 c 0,-1.172634 -0.944032,-2.116667 -2.116666,-2.116667 z" />
      </g>
      <path
         id="circle7"
         style="fill:url(#linearGradient16);fill-opacity:1;stroke-width:14.1426;stroke-dasharray:42.4277, 14.1426;stroke-dashoffset:141.426"
         d="m 261.65658,104.84196 c -2.18266,-0.838 -4.6314,0.25207 -5.4694,2.43473 -0.83799,2.18266 0.25207,4.6314 2.43473,5.4694 2.18267,0.838 4.63141,-0.25207 5.46941,-2.43473 0.838,-2.18267 -0.25207,-4.63141 -2.43474,-5.4694 z m -10.93879,4.86946 c -2.18267,-0.838 -4.6314,0.25206 -5.4694,2.43474 -0.838,2.18266 0.25206,4.6314 2.43473,5.46939 2.18266,0.838 4.6314,-0.25207 5.4694,-2.43473 0.838,-2.18266 -0.25207,-4.6314 -2.43473,-5.4694 z m 15.80826,6.06933 c -2.18266,-0.838 -4.6314,0.25207 -5.4694,2.43474 -0.838,2.18266 0.25207,4.6314 2.43473,5.46939 2.18266,0.838 4.63139,-0.25207 5.46939,-2.43473 0.838,-2.18267 -0.25206,-4.6314 -2.43472,-5.4694 z m -10.9388,4.86947 c -2.18266,-0.838 -4.6314,0.25207 -5.4694,2.43474 -0.838,2.18266 0.25207,4.63139 2.43473,5.46939 2.18267,0.83801 4.6314,-0.25206 5.4694,-2.43473 0.838,-2.18267 -0.25206,-4.6314 -2.43473,-5.4694 z"
         sodipodi:nodetypes="ssssssssssssssssssss" />
      <g
         id="g15"
         transform="rotate(21.003501,171.90405,102.18439)">
        <path
           d="m 226.37953,95.533579 c -1.01552,0.586315 -1.36107,1.875898 -0.77475,2.891425 0.58631,1.015527 1.8759,1.36107 2.89142,0.774755 l 5.49927,-3.175 c 1.01552,-0.586315 1.36107,-1.875898 0.77475,-2.891425 -0.58631,-1.015527 -1.8759,-1.36107 -2.89142,-0.774755 z"
           style="fill:url(#linearGradient12);fill-opacity:1;stroke-width:14.1426;stroke-dasharray:42.4277, 14.1426;stroke-dashoffset:141.426"
           id="path1"
           sodipodi:nodetypes="sssssss" />
        <path
           d="m 210.50453,95.533581 c -1.01553,0.586311 -1.36107,1.875897 -0.77476,2.891423 0.58632,1.015529 1.8759,1.361068 2.89143,0.774757 l 5.49925,-3.175004 c 1.01553,-0.586311 1.36107,-1.875897 0.77476,-2.891423 -0.58632,-1.015529 -1.8759,-1.361068 -2.89143,-0.774757 z"
           style="fill:url(#linearGradient10);fill-opacity:1;stroke-width:14.1426;stroke-dasharray:42.4277, 14.1426;stroke-dashoffset:141.426"
           id="path1-3" />
      </g>
      <path
         id="path5"
         style="opacity:0.25;fill:#ffffff;fill-opacity:1;stroke:none;stroke-width:10.5833;stroke-linecap:round;stroke-linejoin:round;stroke-dasharray:none;stroke-dashoffset:144.919;paint-order:stroke markers fill"
         d="m 198.26954,82.895713 c 0.67356,0.56426 0.94631,1.511272 0.61289,2.379701 l -1.89704,4.940268 1.09967,0.422191 1.8557,-4.833293 c 0.4203,-1.094722 -0.12276,-2.314411 -1.21749,-2.734715 z m -13.97434,9.249563 c 0.17552,0.146977 0.37835,0.268146 0.60462,0.355017 l 3.84008,1.474329 0.0413,-0.106971 z m 18.23507,0.321946 c 0.67356,0.56426 0.9463,1.511268 0.61288,2.379701 l -0.75861,1.976102 c -0.4203,1.094728 -1.64,1.637287 -2.73471,1.216987 l -4.94027,-1.896523 -1.89652,4.940271 c -0.4203,1.09471 -1.64,1.63779 -2.73472,1.21749 l -1.52187,-0.58446 c 0.17544,0.14695 0.37792,0.26766 0.60409,0.35449 l 1.97611,0.75914 c 1.09472,0.4203 2.31442,-0.12278 2.73472,-1.2175 l 1.89652,-4.94027 4.94027,1.896523 c 1.09472,0.4203 2.31441,-0.12225 2.73471,-1.216978 l 0.75861,-1.976111 c 0.4203,-1.094718 -0.12277,-2.314408 -1.21749,-2.734708 z m 60.01597,12.843148 c 1.5721,1.08426 2.25986,3.13963 1.54513,5.00124 -0.81647,2.12659 -3.16175,3.21595 -5.30045,2.49545 0.27112,0.18701 0.56829,0.34493 0.88934,0.46819 2.18267,0.838 4.63144,-0.25181 5.46944,-2.43447 0.838,-2.18267 -0.25232,-4.63144 -2.43499,-5.46944 -0.0561,-0.0215 -0.11207,-0.042 -0.16849,-0.0609 z m -44.18025,4.04368 c 0.33603,0.31125 0.57363,0.73423 0.65113,1.2237 0.18337,1.1582 -0.60138,2.23819 -1.75959,2.42155 l -6.27197,0.99271 c -0.2434,0.0385 -0.4832,0.0342 -0.7121,-0.007 0.45906,0.42527 1.10163,0.64229 1.77044,0.5364 l 6.27197,-0.99271 c 1.1582,-0.18336 1.94295,-1.26335 1.75958,-2.42155 -0.14483,-0.91485 -0.84911,-1.59702 -1.70946,-1.75286 z m 33.24139,0.82578 c 1.57199,1.08427 2.25986,3.13963 1.54512,5.00126 -0.81646,2.12656 -3.16177,3.2159 -5.30045,2.49544 0.2711,0.187 0.5683,0.34493 0.88935,0.4682 2.18266,0.83799 4.63144,-0.25182 5.46944,-2.43448 0.838,-2.18267 -0.25182,-4.63144 -2.43448,-5.46944 -0.0561,-0.0215 -0.1125,-0.0421 -0.16911,-0.0606 z m -18.42058,4.86431 c 0.33584,0.31109 0.57314,0.73388 0.6506,1.22318 0.18338,1.1582 -0.60138,2.23819 -1.75958,2.42156 l -6.27196,0.99322 c -0.24342,0.0385 -0.48321,0.0342 -0.71211,-0.007 0.45906,0.42527 1.10163,0.6423 1.77043,0.53641 l 6.27197,-0.99322 c 1.15819,-0.18337 1.94296,-1.26337 1.75959,-2.42156 -0.14484,-0.91467 -0.84877,-1.59646 -1.70894,-1.75235 z m 34.22892,1.20457 c 1.57207,1.08427 2.25985,3.13965 1.54511,5.00125 -0.81646,2.12657 -3.16174,3.21643 -5.30044,2.49598 0.27112,0.187 0.5683,0.34492 0.88935,0.46818 2.18266,0.838 4.63144,-0.25233 5.46944,-2.43499 0.838,-2.18267 -0.25234,-4.63143 -2.435,-5.46943 -0.0561,-0.0215 -0.11208,-0.042 -0.1683,-0.0614 z m -10.93888,4.86947 c 1.57199,1.08427 2.25986,3.13965 1.54513,5.00126 -0.81646,2.12656 -3.16176,3.21639 -5.30045,2.49597 0.2711,0.18699 0.56831,0.34492 0.88935,0.46818 2.18267,0.83801 4.63143,-0.25232 5.46943,-2.43499 0.838,-2.18267 -0.2518,-4.63143 -2.43447,-5.46943 -0.0561,-0.0216 -0.11252,-0.0421 -0.16912,-0.0606 z"
         sodipodi:nodetypes="ccccccccscccccccccccccccccccccscsssccscccccsccscsssccscccccsccscsssccscsssc" />
      <g
         id="g7"
         transform="rotate(21.003501,89.569991,522.4502)"
         style="fill:#5e5c64" />
      <g
         id="g9"
         transform="rotate(21.003501,171.90405,102.18439)" />
    </g>
    <g
       id="g31"
       transform="translate(24.341665,-174.625)">
      <path
         id="rect29"
         style="fill:#4d4d4d;fill-opacity:1;stroke:none;stroke-width:2.09379;stroke-linecap:round;stroke-linejoin:round;stroke-dasharray:none;stroke-opacity:1"
         d="M -159.80833,39.158333 V 174.625 H -24.341666 V 39.158333 H -137.18646 V 55.58472 h -2.81119 V 41.914754 h -0.0217 l -3.93568,2.546614 v -2.668054 l 4.07883,-2.634981 h -4.68551 l -5.75468,16.426387 h -3.62666 z m 3.15329,0 2.9652,8.632031 c 0.26458,0.837848 0.56224,1.796961 0.89297,2.877344 0.21431,0.695317 0.44732,1.452422 0.69866,2.271179 0.2435,-0.818757 0.47,-1.575862 0.67955,-2.271179 0.32338,-1.080383 0.61351,-2.039496 0.87075,-2.877344 l 2.86649,-8.632031 z" />
      <g
         id="g30"
         transform="translate(-160.33748,39.158331)">
        <circle
           style="fill:#000000;fill-opacity:1;stroke-width:14.4919;stroke-dasharray:43.4755, 14.4919;stroke-dashoffset:144.919"
           id="path835"
           cx="33.866665"
           cy="68.791679"
           r="25.4" />
        <circle
           style="fill:#deddda;fill-opacity:1;stroke-width:13.2842;stroke-dasharray:39.8525, 13.2842;stroke-dashoffset:132.842"
           id="circle906"
           cx="33.866665"
           cy="68.791679"
           r="23.283331" />
        <path
           id="rect839"
           style="fill:#000000;fill-opacity:1;stroke-width:13.2292;stroke-dasharray:39.6875, 13.2292;stroke-dashoffset:132.292"
           d="m 33.866666,43.391665 v 50.800001 c 10.583333,0 17.991667,-4.23333 33.866666,-4.23333 15.875,0 23.283334,4.23333 33.866668,4.23333 V 43.391665 Z"
           sodipodi:nodetypes="cczccc" />
        <circle
           style="fill:#000000;fill-opacity:1;stroke-width:14.4919;stroke-dasharray:43.4755, 14.4919;stroke-dashoffset:144.919"
           id="circle837"
           cx="102.65832"
           cy="68.791679"
           r="25.4" />
        <path
           id="path910"
           style="fill:#deddda;fill-opacity:1;stroke-width:12.9507;stroke-dasharray:38.8519, 12.9507;stroke-dashoffset:129.507"
           d="m 33.866666,45.508332 v 46.566664 c 10.583333,0 17.991667,-4.056947 33.866666,-4.056947 15.875,0 23.283334,4.056947 33.866668,4.056947 V 45.508332 Z"
           sodipodi:nodetypes="cczccc" />
        <circle
           style="fill:#deddda;fill-opacity:1;stroke-width:13.2842;stroke-dasharray:39.8525, 13.2842;stroke-dashoffset:132.842"
           id="circle908"
           cx="102.65832"
           cy="68.791679"
           r="23.283331" />
        <circle
           style="fill:#f6f5f4;fill-opacity:1;stroke-width:9.66127;stroke-dasharray:28.9837, 9.66127;stroke-dashoffset:96.6127"
           id="circle847"
           cx="33.866665"
           cy="68.791679"
           r="16.933332" />
        <g
           id="g851"
           transform="translate(2.1166658,-14.816663)"
           style="fill:#5e5c64">
          <rect
             style="fill:#5e5c64;fill-opacity:1;stroke-width:10.9236;stroke-dasharray:32.7709, 10.9236;stroke-dashoffset:109.236"
             id="rect843"
             width="6.3500009"
             height="21.166679"
             x="28.574999"
             y="73.024994"
             ry="2.116668" />
          <rect
             style="fill:#5e5c64;fill-opacity:1;stroke-width:10.9236;stroke-dasharray:32.7709, 10.9236;stroke-dashoffset:109.236"
             id="rect845"
             width="6.3500104"
             height="21.16667"
             x="80.433327"
             y="-42.333332"
             ry="2.1166651"
             transform="rotate(90)" />
        </g>
        <circle
           style="fill:#f6f5f4;fill-opacity:1;stroke-width:9.66127;stroke-dasharray:28.9837, 9.66127;stroke-dashoffset:96.6127"
           id="circle855"
           cx="102.65832"
           cy="68.791679"
           r="16.933332" />
        <circle
           style="fill:#c061cb;fill-opacity:1;stroke-width:14.1426;stroke-dasharray:42.4277, 14.1426;stroke-dashoffset:141.426"
           id="path873"
           cx="102.65833"
           cy="60.325001"
           r="4.2333331" />
        <circle
           style="fill:#e01b24;fill-opacity:1;stroke-width:14.1426;stroke-dasharray:42.4277, 14.1426;stroke-dashoffset:141.426"
           id="circle875"
           cx="102.65833"
           cy="77.258331"
           r="4.2333331" />
        <circle
           style="fill:#f8e45c;fill-opacity:1;stroke-width:14.1426;stroke-dasharray:42.4277, 14.1426;stroke-dashoffset:141.426"
           id="circle877"
           cx="94.191666"
           cy="68.791664"
           r="4.2333331" />
        <circle
           style="fill:#33d17a;fill-opacity:1;stroke-width:14.1426;stroke-dasharray:42.4277, 14.1426;stroke-dashoffset:141.426"
           id="circle879"
           cx="111.12498"
           cy="68.791664"
           r="4.2333331" />
        <path
           id="circle914"
           style="fill:#000000;fill-opacity:1;stroke-width:10.8689;stroke-dasharray:32.6067, 10.8689;stroke-dashoffset:108.689"
           d="m 33.771064,49.741665 a 19.050001,19.050001 0 0 0 -18.954398,19.05 19.050001,19.050001 0 0 0 19.05,19.05 19.050001,19.050001 0 0 0 19.05,-19.05 19.050001,19.050001 0 0 0 -19.05,-19.05 19.050001,19.050001 0 0 0 -0.0956,0 z m 0.01705,2.116667 a 16.933332,16.933332 0 0 1 0.07855,0 A 16.933332,16.933332 0 0 1 50.799999,68.791665 16.933332,16.933332 0 0 1 33.866666,85.724998 16.933332,16.933332 0 0 1 16.933333,68.791665 16.933332,16.933332 0 0 1 33.788117,51.858332 Z" />
        <path
           id="circle920"
           style="fill:#000000;fill-opacity:1;stroke-width:10.8689;stroke-dasharray:32.6067, 10.8689;stroke-dashoffset:108.689"
           d="m 102.56273,49.741665 a 19.050001,19.050001 0 0 0 -18.954398,19.05 19.050001,19.050001 0 0 0 19.049998,19.05 19.050001,19.050001 0 0 0 19.05,-19.05 19.050001,19.050001 0 0 0 -19.05,-19.05 19.050001,19.050001 0 0 0 -0.0956,0 z m 0.017,2.116667 a 16.933332,16.933332 0 0 1 0.0786,0 16.933332,16.933332 0 0 1 16.93334,16.933333 A 16.933332,16.933332 0 0 1 102.65833,85.724998 16.933332,16.933332 0 0 1 85.724999,68.791665 16.933332,16.933332 0 0 1 102.57978,51.858332 Z" />
        <rect
           style="fill:#000000;fill-opacity:1;stroke-width:13.2292;stroke-dasharray:39.6875, 13.2292;stroke-dashoffset:132.292"
           id="rect932"
           width="10.583335"
           height="4.2333307"
           x="55.033333"
           y="73.025002"
           ry="2.1166649" />
        <rect
           style="fill:#000000;fill-opacity:1;stroke-width:13.2292;stroke-dasharray:39.6875, 13.2292;stroke-dashoffset:132.292"
           id="rect934"
           width="10.583335"
           height="4.2333307"
           x="70.908333"
           y="73.025009"
           ry="2.1166649" />
        <rect
           style="fill:#000000;fill-opacity:1;stroke-width:11.4568;stroke-dasharray:34.3704, 11.4568;stroke-dashoffset:114.568"
           id="rect938"
           width="25.400003"
           height="4.233335"
           x="83.60833"
           y="41.274994"
           ry="2.1166675" />
        <rect
           style="fill:#000000;fill-opacity:1;stroke-width:11.4568;stroke-dasharray:34.3704, 11.4568;stroke-dashoffset:114.568"
           id="rect958"
           width="25.400003"
           height="4.233335"
           x="27.516666"
           y="41.274994"
           ry="2.1166675" />
        <path
           id="path855"
           style="font-style:normal;font-variant:normal;font-weight:bold;font-stretch:normal;font-size:10.5833px;line-height:1.25;font-family:Cantarell;-inkscape-font-specification:'Cantarell Bold';fill:#000000;fill-opacity:1;stroke:none;stroke-width:0.264583"
           d="m 66.930887,51.340019 -0.682128,2.963125 c -0.267173,-0.264581 -0.660903,-0.391706 -1.147733,-0.391706 -1.449912,0 -2.66197,1.079318 -3.039608,2.719729 -0.365455,1.587495 0.314444,2.635499 1.626772,2.635499 0.645584,0 1.254038,-0.254167 1.737363,-0.698664 l 0.149344,0.592727 h 0.868164 l 1.800408,-7.82071 z m 4.488098,2.571419 c -1.534578,0 -2.812275,1.090129 -3.180168,2.688207 -0.380074,1.650994 0.465776,2.667021 2.222604,2.667021 0.60325,0 1.288729,-0.126836 1.903243,-0.359669 l -0.0925,-0.931725 c -0.451731,0.169333 -0.928791,0.264583 -1.362708,0.264583 -0.920747,0 -1.392666,-0.433877 -1.356505,-1.280541 h 3.334163 c 0.08048,-0.211667 0.185144,-0.528878 0.238746,-0.761712 0.324038,-1.407578 -0.331044,-2.286164 -1.706874,-2.286164 z m -14.57637,0.105937 -0.755509,3.280936 c -0.272876,1.185328 0.282424,1.947167 1.351338,1.947167 0.603247,0 1.228063,-0.23269 1.757,-0.645438 l 0.114205,0.560689 h 0.963247 l 1.183907,-5.143354 h -1.354439 l -0.850593,3.693313 c -0.339352,0.232834 -0.696682,0.360186 -1.045932,0.360186 -0.730248,0 -0.823362,-0.561187 -0.706417,-1.069187 l 0.687298,-2.984312 z m 17.261478,0 0.815972,5.143354 h 1.344102 l 3.184303,-5.143354 h -1.35444 l -2.165241,3.841626 -0.332798,-3.841626 z m -3.018936,0.931209 c 0.666748,0 0.958464,0.434041 0.785482,1.185458 h -2.159042 c 0.251933,-0.772581 0.727977,-1.185458 1.37356,-1.185458 z m -6.067848,0.105936 c 0.433917,0 0.773951,0.179875 0.946714,0.486791 l -0.48731,2.116667 c -0.301051,0.296333 -0.68951,0.465606 -1.102259,0.465606 -0.793748,0 -1.149819,-0.613569 -0.928109,-1.57665 0.211966,-0.920747 0.808967,-1.492414 1.570964,-1.492414 z" />
      </g>
    </g>
    <g
       id="g33">
      <path
         id="rect31"
         style="fill:#1a1a1a;fill-opacity:1;stroke:none;stroke-width:5.26441;stroke-linecap:round;stroke-linejoin:round;stroke-dasharray:none;stroke-opacity:1"
         d="M -135.46666 0 L -135.46666 11.333158 L -132.61154 11.333158 C -132.60419 11.994617 -132.45336 12.563861 -132.15937 13.041581 C -131.86539 13.511952 -131.44647 13.872251 -130.9026 14.122135 C -130.35139 14.37202 -129.69745 14.496789 -128.94045 14.496789 C -128.25694 14.496789 -127.66163 14.40159 -127.15451 14.210502 C -126.64004 14.012064 -126.24317 13.736457 -125.96389 13.383679 C -125.67725 13.023551 -125.53394 12.604629 -125.53394 12.126908 C -125.53394 11.737382 -125.63666 11.399132 -125.84245 11.1125 C -126.04823 10.825868 -126.37546 10.575812 -126.82378 10.362675 C -127.26475 10.149538 -127.85254 9.9586227 -128.5875 9.7895832 L -130.35122 9.3927082 C -131.99016 9.0178814 -133.19933 8.4631648 -133.97838 7.7282104 C -134.75744 6.9932559 -135.14679 6.0486701 -135.14679 4.8947916 C -135.14679 3.9099526 -134.89725 3.0535611 -134.39748 2.3259562 C -133.89036 1.5910017 -133.18481 1.0217583 -132.28081 0.61753336 C -131.37038 0.20637202 -130.31325 0.00041274394 -129.10943 0 L -135.46666 0 z M -129.1022 0 C -127.87637 0.00042005705 -126.81923 0.21338435 -125.93081 0.63923746 C -125.03417 1.0581615 -124.33964 1.6609945 -123.84722 2.4473958 C -123.34745 3.2264475 -123.08287 4.160009 -123.05347 5.2477416 L -125.82023 5.2477416 C -125.87902 4.3804954 -126.20275 3.7004924 -126.79071 3.2080729 C -127.37867 2.7156534 -128.15387 2.4696167 -129.11667 2.4696167 C -129.71933 2.4696167 -130.25602 2.5688352 -130.72639 2.7672729 C -131.19676 2.9583611 -131.56406 3.2264464 -131.82864 3.571875 C -132.09323 3.909954 -132.22552 4.3033257 -132.22552 4.7516479 C -132.22552 5.1191251 -132.1263 5.4388293 -131.92786 5.7107625 C -131.72208 5.9753461 -131.40237 6.2103585 -130.96875 6.4161458 C -130.52778 6.621933 -129.95101 6.8058433 -129.2381 6.9675333 L -127.57309 7.3530395 C -126.72054 7.5441276 -125.98594 7.7796568 -125.36857 8.0589395 C -124.74386 8.3308727 -124.22922 8.6540794 -123.825 9.0289061 C -123.42077 9.4037329 -123.12312 9.8336799 -122.93203 10.31875 C -122.73359 10.80382 -122.63437 11.347512 -122.63437 11.950175 C -122.63437 12.971762 -122.89143 13.857723 -123.4059 14.607377 C -123.92037 15.35703 -124.65199 15.937298 -125.60008 16.348873 C -126.54818 16.753098 -127.66863 16.955554 -128.96215 16.955554 C -130.31447 16.955554 -131.47604 16.731049 -132.44618 16.282727 C -133.41632 15.834405 -134.16195 15.191494 -134.68377 14.353646 C -135.20442 13.517675 -135.4655 12.513447 -135.46666 11.34091 L -135.46666 135.46666 L 0 135.46666 L 0 0 L -98.791901 0 C -97.867139 0.00033992657 -97.004587 0.14015351 -96.204463 0.41909586 C -95.403362 0.69102901 -94.694306 1.0879032 -94.076944 1.6097208 C -93.452233 2.124189 -92.937594 2.7415488 -92.533369 3.4618042 C -92.129144 4.1820595 -91.857556 4.9938372 -91.717915 5.8978311 L -94.683108 5.8978311 C -94.793352 5.3760135 -94.96974 4.9129936 -95.212275 4.5087687 C -95.45481 4.0971942 -95.752466 3.7519389 -96.105244 3.4726562 C -96.458022 3.186024 -96.858915 2.9730601 -97.307238 2.8334187 C -97.75556 2.6864279 -98.244131 2.6127604 -98.773298 2.6127604 C -99.772836 2.6127604 -100.63273 2.8587971 -101.35299 3.3512166 C -102.07324 3.8362865 -102.62796 4.5197921 -103.01748 5.4017374 C -103.40701 6.2763332 -103.60194 7.3056108 -103.60194 8.4888874 C -103.60194 9.6648146 -103.41103 10.690073 -103.02885 11.564669 C -102.63933 12.439264 -102.08409 13.12277 -101.36384 13.615189 C -100.63623 14.100259 -99.772836 14.342794 -98.773298 14.342794 C -98.244131 14.342794 -97.759062 14.272629 -97.31809 14.132987 C -96.869767 13.985996 -96.469391 13.773033 -96.116613 13.49375 C -95.763834 13.214467 -95.466179 12.872714 -95.223644 12.468489 C -94.973759 12.064264 -94.789849 11.601245 -94.672256 11.079427 L -91.717915 11.079427 C -91.857556 11.976071 -92.129144 12.784347 -92.533369 13.504602 C -92.937594 14.224857 -93.452233 14.842217 -94.076944 15.356685 C -94.701655 15.871153 -95.414731 16.268027 -96.215831 16.54731 C -97.009582 16.819243 -97.869476 16.955554 -98.795519 16.955554 C -100.30218 16.955554 -101.63962 16.606279 -102.80819 15.908073 C -103.96942 15.209866 -104.88093 14.225202 -105.54239 12.953731 C -106.20385 11.68226 -106.53458 10.193982 -106.53458 8.4888874 C -106.53458 6.769094 -106.20736 5.2732941 -105.55325 4.0018229 C -104.89179 2.7303517 -103.97677 1.745688 -102.80819 1.0474813 C -101.64052 0.34981267 -100.30385 0.00053771213 -98.798619 0 L -129.1022 0 z M -120.46241 0.26458333 L -114.05764 0.26458333 C -112.85231 0.26458333 -111.81201 0.47754721 -110.93741 0.90382079 C -110.05547 1.3300944 -109.37598 1.9364299 -108.89826 2.7228312 C -108.42054 3.5092324 -108.18151 4.4392915 -108.18151 5.512325 C -108.18151 6.5780089 -108.43507 7.5000294 -108.94219 8.2790811 C -109.44196 9.0581328 -110.14751 9.6609659 -111.05885 10.087239 C -111.13697 10.123441 -111.21609 10.158036 -111.29656 10.191109 L -111.29708 10.191109 L -107.873 16.690971 L -111.08107 16.690971 L -114.16667 10.715108 C -114.19274 10.715302 -114.21849 10.715625 -114.2447 10.715625 L -117.552 10.715625 L -117.552 16.690971 L -120.46241 16.690971 L -120.46241 0.26458333 z M -117.552 2.7342 L -117.552 8.312154 L -114.20078 8.312154 C -113.55402 8.312154 -112.99528 8.1984087 -112.52491 7.9705728 C -112.05454 7.7427369 -111.69074 7.4195302 -111.43351 7.0006062 C -111.17627 6.5816822 -111.048 6.0855894 -111.048 5.512325 C -111.048 4.9390605 -111.17627 4.4464703 -111.43351 4.0348958 C -111.69074 3.6233213 -112.05454 3.3036171 -112.52491 3.0757812 C -112.99528 2.8479453 -113.56154 2.7342 -114.223 2.7342 L -117.552 2.7342 z " />
      <g
         id="g32"
         transform="translate(-19.843755,-26.551895)">
        <path
           id="path21"
           style="fill:url(#linearGradient28);fill-opacity:1;stroke-width:14.4919;stroke-dasharray:43.4755, 14.4919;stroke-dashoffset:144.919"
           d="m -86.51875,97.818348 c -1.17263,0 -2.11666,0.944033 -2.11666,2.116666 0,0.271926 0.0505,0.531556 0.14314,0.769976 a 25.4,25.4 0 0 0 -19.19314,24.63003 25.4,25.4 0 0 0 25.4,25.40001 c 10.58333,0 17.99166,-4.23334 33.86666,-4.23334 15.875,0 23.28334,4.23334 33.86668,4.23334 v -0.0222 a 25.4,25.4 0 0 0 1.05833,0.0222 25.4,25.4 0 0 0 25.4,-25.40001 25.4,25.4 0 0 0 -19.19314,-24.63003 c 0.0926,-0.23842 0.14314,-0.49805 0.14314,-0.769976 0,-1.172633 -0.94403,-2.116666 -2.11666,-2.116666 h -21.16668 c -1.17263,0 -2.11667,0.944033 -2.11667,2.116666 h -30.69166 c 0,-1.172633 -0.94404,-2.116666 -2.11667,-2.116666 z" />
        <g
           id="g22"
           transform="translate(-114.03541,40.66835)"
           style="fill:#5e5c64">
          <path
             id="path22"
             style="fill:#ffffff;fill-opacity:1;stroke-width:10.9236;stroke-dasharray:32.7709, 10.9236;stroke-dashoffset:109.236"
             d="m 30.691663,73.024996 c -1.172634,0 -2.116667,0.944033 -2.116667,2.116667 v 5.291666 H 23.28333 c -1.172633,0 -2.116667,0.944035 -2.116667,2.116667 v 2.116667 c 0,1.172632 0.944034,2.116666 2.116667,2.116666 h 5.291666 v 5.291667 c 0,1.172634 0.944033,2.116667 2.116667,2.116667 h 2.116667 c 1.172634,0 2.116666,-0.944033 2.116666,-2.116667 v -5.291667 h 5.291667 c 1.172632,0 2.116666,-0.944034 2.116666,-2.116666 v -2.116667 c 0,-1.172632 -0.944034,-2.116667 -2.116666,-2.116667 h -5.291667 v -5.291666 c 0,-1.172634 -0.944032,-2.116667 -2.116666,-2.116667 z" />
        </g>
        <path
           id="path23"
           style="fill:#ffffff;fill-opacity:1;stroke-width:14.1426;stroke-dasharray:42.4277, 14.1426;stroke-dashoffset:141.426"
           d="m -13.49374,111.57668 c -2.33801,0 -4.23334,1.89533 -4.23334,4.23334 0,2.338 1.89533,4.23333 4.23334,4.23333 2.33801,0 4.23334,-1.89533 4.23334,-4.23333 0,-2.33801 -1.89533,-4.23334 -4.23334,-4.23334 z m -8.46667,8.46667 c -2.33801,0 -4.23334,1.89532 -4.23334,4.23334 0,2.338 1.89533,4.23334 4.23334,4.23333 2.338,0 4.23333,-1.89533 4.23333,-4.23333 0,-2.33801 -1.89533,-4.23334 -4.23333,-4.23334 z m 16.93334,0 c -2.338,0 -4.23333,1.89533 -4.23333,4.23334 0,2.338 1.89533,4.23333 4.23333,4.23333 2.338,0 4.23333,-1.89533 4.23333,-4.23333 0,-2.33801 -1.89533,-4.23334 -4.23333,-4.23334 z m -8.46667,8.46667 c -2.33801,0 -4.23334,1.89533 -4.23334,4.23334 0,2.338 1.89533,4.23333 4.23334,4.23333 2.33801,1e-5 4.23334,-1.89532 4.23334,-4.23333 0,-2.33801 -1.89533,-4.23334 -4.23334,-4.23334 z"
           sodipodi:nodetypes="ssssssssssssssssssss" />
        <g
           id="g25"
           transform="translate(-270.13963,39.08085)">
          <path
             d="m 226.37953,95.533579 c -1.01552,0.586315 -1.36107,1.875898 -0.77475,2.891425 0.58631,1.015527 1.8759,1.36107 2.89142,0.774755 l 5.49927,-3.175 c 1.01552,-0.586315 1.36107,-1.875898 0.77475,-2.891425 -0.58631,-1.015527 -1.8759,-1.36107 -2.89142,-0.774755 z"
             style="fill:#ffffff;fill-opacity:1;stroke-width:14.1426;stroke-dasharray:42.4277, 14.1426;stroke-dashoffset:141.426"
             id="path24"
             sodipodi:nodetypes="sssssss" />
          <path
             d="m 210.50453,95.533581 c -1.01553,0.586311 -1.36107,1.875897 -0.77476,2.891423 0.58632,1.015529 1.8759,1.361068 2.89143,0.774757 l 5.49925,-3.175004 c 1.01553,-0.586311 1.36107,-1.875897 0.77476,-2.891423 -0.58632,-1.015529 -1.8759,-1.361068 -2.89143,-0.774757 z"
             style="fill:#ffffff;fill-opacity:1;stroke-width:14.1426;stroke-dasharray:42.4277, 14.1426;stroke-dashoffset:141.426"
             id="path25" />
        </g>
        <text
           xml:space="preserve"
           style="font-style:normal;font-variant:normal;font-weight:bold;font-stretch:normal;font-size:10.6893px;font-family:sans-serif;-inkscape-font-specification:'sans-serif Bold';writing-mode:lr-tb;direction:ltr;fill:url(#linearGradient27);stroke-width:0.0556735"
           x="-83.703018"
           y="34.890556"
           id="text25"
           transform="rotate(-27.66649)"><tspan
             sodipodi:role="line"
             id="tspan25"
             style="font-style:normal;font-variant:normal;font-weight:500;font-stretch:normal;font-family:'Adwaita Sans';-inkscape-font-specification:'Adwaita Sans Medium';fill:url(#linearGradient27);stroke-width:0.0556735"
             x="-83.703018"
             y="34.890556">udev</tspan></text>
        <path
           style="fill:none;stroke:url(#linearGradient26);stroke-width:3.175;stroke-linecap:round;stroke-linejoin:round;stroke-dasharray:none"
           d="M -47.20543,95.359602 C -47.23623,77.075973 -18.28762,69.103381 -26.23364,58.25374 -34.17966,47.40409 -61.48146,75.193992 -68.12175,68.401921 -74.76203,61.60985 -65.76871,46.27162 -60.3195,39.42292"
           id="path26"
           sodipodi:nodetypes="czzc" />
      </g>
    </g>
  </g>
</svg>
